<?xml version="1.0" standalone="no"?>
<!DOCTYPE svg PUBLIC "-//W3C//DTD SVG 20010904//EN"
 "http://www.w3.org/TR/2001/REC-SVG-20010904/DTD/svg10.dtd">
<svg version="1.0" xmlns="http://www.w3.org/2000/svg"
 width="512.000000pt" height="512.000000pt" viewBox="0 0 512.000000 512.000000"
 preserveAspectRatio="xMidYMid meet">

<g transform="translate(0.000000,512.000000) scale(0.100000,-0.100000)"
fill="#000000" stroke="none">
<path d="M1608 5110 c-25 -5 -75 -21 -110 -36 -59 -26 -108 -73 -736 -698
-625 -623 -676 -676 -708 -741 -19 -38 -39 -97 -44 -130 -13 -80 -13 -1810 0
-1889 5 -32 23 -88 40 -125 29 -61 79 -114 703 -738 624 -624 677 -674 738
-703 37 -17 93 -35 125 -40 79 -13 1809 -13 1889 0 33 5 92 25 130 44 65 32
118 83 741 708 625 627 672 677 698 736 15 35 32 91 37 125 11 81 11 1793 0
1874 -5 34 -22 90 -37 125 -26 59 -73 109 -698 736 -623 625 -676 676 -741
708 -38 19 -97 39 -130 44 -72 12 -1827 11 -1897 0z m1860 -355 c51 -22 1256
-1223 1283 -1280 18 -38 19 -80 19 -915 0 -835 -1 -877 -19 -915 -27 -57
-1232 -1258 -1283 -1280 -33 -13 -148 -15 -908 -15 -760 0 -875 2 -908 15 -51
22 -1256 1223 -1283 1280 -18 38 -19 80 -19 913 0 762 2 877 15 910 22 51
1223 1256 1280 1283 38 18 80 19 913 19 762 0 877 -2 910 -15z"/>
<path d="M1271 3423 c-17 -14 -55 -128 -162 -483 -86 -285 -137 -474 -134
-488 3 -12 14 -31 25 -42 19 -19 34 -20 215 -20 l195 0 0 -134 c0 -73 5 -147
11 -165 24 -67 113 -78 150 -18 16 28 19 52 19 175 l0 142 150 0 c147 0 152 1
175 25 35 34 33 78 -4 116 l-29 29 -146 0 -145 0 -3 151 -3 151 -28 24 c-36
31 -78 31 -114 0 l-28 -24 -3 -151 -4 -151 -114 0 c-63 0 -114 3 -114 7 0 3
52 181 116 394 81 269 115 395 110 413 -15 59 -89 86 -135 49z"/>
<path d="M2458 3429 c-114 -27 -234 -121 -286 -225 -47 -94 -52 -139 -52 -472
0 -395 11 -441 128 -564 171 -180 453 -180 624 0 117 123 128 169 128 564 0
189 -4 327 -11 360 -51 238 -295 393 -531 337z m179 -174 c63 -19 134 -80 165
-143 23 -46 23 -51 23 -377 l0 -330 -27 -51 c-50 -94 -131 -143 -239 -144
-108 0 -186 49 -242 154 -21 40 -22 50 -22 371 0 326 0 331 23 377 43 88 145
155 238 157 17 1 53 -6 81 -14z"/>
<path d="M3476 3418 c-20 -19 -49 -105 -160 -477 -75 -250 -136 -465 -136
-478 0 -13 11 -35 25 -48 24 -25 25 -25 220 -25 l195 0 0 -149 c0 -133 2 -151
20 -174 11 -14 33 -28 49 -32 38 -8 89 18 96 48 3 12 6 85 8 162 l2 140 158 5
c144 5 160 7 173 25 23 31 27 61 12 91 -22 47 -49 54 -205 54 l-143 0 0 150
c0 147 -1 152 -25 175 -34 35 -78 33 -116 -4 l-29 -29 0 -146 0 -146 -119 0
-118 0 119 396 c79 265 116 403 112 420 -8 32 -50 64 -85 64 -15 0 -39 -10
-53 -22z"/>
<path d="M1004 1826 c-21 -18 -28 -32 -28 -61 0 -29 7 -43 28 -61 l27 -24
1529 0 1529 0 27 24 c39 33 39 89 0 122 l-27 24 -1529 0 -1529 0 -27 -24z"/>
</g>
</svg>
